<?xml version="1.0" encoding="UTF-8" standalone="no"?>
<!-- Created with Inkscape (http://www.inkscape.org/) -->

<svg
   width="95mm"
   height="34.777283mm"
   viewBox="0 0 94.999999 34.777283"
   version="1.1"
   id="svg5"
   xml:space="preserve"
   inkscape:version="1.2.2 (732a01da63, 2022-12-09)"
   sodipodi:docname="quantum_logo.svg"
   xmlns:inkscape="http://www.inkscape.org/namespaces/inkscape"
   xmlns:sodipodi="http://sodipodi.sourceforge.net/DTD/sodipodi-0.dtd"
   xmlns="http://www.w3.org/2000/svg"
   xmlns:svg="http://www.w3.org/2000/svg"><sodipodi:namedview
     id="namedview7"
     pagecolor="#ffffff"
     bordercolor="#000000"
     borderopacity="0.25"
     inkscape:showpageshadow="2"
     inkscape:pageopacity="0.0"
     inkscape:pagecheckerboard="0"
     inkscape:deskcolor="#d1d1d1"
     inkscape:document-units="mm"
     showgrid="false"
     showguides="true"
     inkscape:zoom="1.3233049"
     inkscape:cx="752.28317"
     inkscape:cy="24.18188"
     inkscape:window-width="2466"
     inkscape:window-height="1204"
     inkscape:window-x="1175"
     inkscape:window-y="663"
     inkscape:window-maximized="0"
     inkscape:current-layer="layer1"><sodipodi:guide
       position="97.670088,105.98594"
       orientation="0,-1"
       id="guide382"
       inkscape:locked="false" /><sodipodi:guide
       position="221.99943,72.040704"
       orientation="0,-1"
       id="guide384"
       inkscape:locked="false" /></sodipodi:namedview><defs
     id="defs2" /><g
     inkscape:label="Layer 1"
     inkscape:groupmode="layer"
     id="layer1"
     transform="translate(154.31367,-319.66339)"><g
       id="g994"
       transform="translate(-153.95482,-0.19994132)"><g
         id="g380"
         transform="matrix(0.82710684,0,0,0.82710684,-114.70058,176.17536)"><path
           style="fill:#085ae3;stroke-width:0.145074"
           d="m 164.75492,215.34062 c -3.188,-0.59091 -6.09276,-2.58672 -9.98809,-6.86262 l -1.71886,-1.8868 -0.96501,-0.10049 c -6.63217,-0.69061 -11.35385,-4.9566 -12.96036,-11.70955 -0.43743,-1.83874 -0.47106,-6.20829 -0.0623,-8.09585 0.90861,-4.19587 2.60229,-7.07978 5.54031,-9.43372 1.68272,-1.3482 3.7971,-2.29875 6.32933,-2.84543 1.79535,-0.3876 5.53225,-0.35877 7.32163,0.0565 2.8061,0.65121 5.0033,1.88708 7.01111,3.94358 2.00263,2.05121 3.28847,4.52692 3.93187,7.57034 0.45544,2.15434 0.45661,6.07628 0.002,8.22391 -1.08469,5.1293 -3.77488,8.72239 -8.03435,10.73087 -0.61931,0.29202 -1.10413,0.59851 -1.07739,0.68107 0.0267,0.0826 0.59471,0.62182 1.26217,1.19833 2.24717,1.94095 4.1491,2.65119 7.0996,2.65119 1.0317,0 2.01179,-0.0846 2.52267,-0.21761 0.4595,-0.11969 0.86492,-0.21762 0.90092,-0.21762 0.036,0 0.0655,1.3318 0.0655,2.95955 v 2.95955 l -0.6891,0.15775 c -2.00581,0.45915 -4.75274,0.55946 -6.49206,0.23707 z m -8.90621,-15.02136 c 3.22948,-0.61246 5.5529,-3.48001 6.09322,-7.52022 0.23137,-1.73005 0.0851,-4.85184 -0.29659,-6.33134 -0.92447,-3.58313 -3.09195,-5.74551 -6.19956,-6.18499 -4.09643,-0.57931 -7.53927,1.84332 -8.78112,6.17902 -0.29615,1.03391 -0.33414,1.47999 -0.33414,3.92296 0,2.44658 0.0375,2.88613 0.33413,3.91046 0.91536,3.1616 2.94144,5.32332 5.59183,5.96621 0.9327,0.22624 2.56579,0.25256 3.59223,0.0579 z m 17.53812,11.46385 v -2.90148 h 39.75028 39.75028 v 2.90148 2.90148 h -39.75028 -39.75028 z m 30.75569,-4.64641 c -0.8268,-0.14519 -1.41683,-0.53829 -1.79157,-1.19363 -0.46962,-0.82124 -0.58075,-1.55661 -0.38078,-2.51984 0.35274,-1.69915 1.8184,-2.60153 3.51195,-2.16223 0.94078,0.24403 1.51673,0.81981 1.80215,1.8016 0.6947,2.38968 -0.90689,4.46656 -3.14175,4.0741 z m 1.51038,-1.6029 c 0.50793,-0.60365 0.54414,-2.05664 0.0664,-2.66401 -0.94262,-1.19835 -2.44721,-0.42651 -2.44721,1.25539 0,1.21633 0.4778,1.85497 1.3878,1.85497 0.51138,0 0.68197,-0.0767 0.99303,-0.44635 z m 15.68089,1.60141 c -1.51481,-0.22125 -2.37356,-1.26357 -2.38594,-2.89595 -0.005,-0.71293 0.4942,-1.94177 0.95621,-2.35192 0.70104,-0.62233 2.18454,-0.90333 3.35196,-0.63491 0.44209,0.10165 0.47149,0.14733 0.47149,0.73262 v 0.62421 l -0.54403,-0.19415 c -0.73423,-0.26202 -1.27279,-0.25331 -1.87042,0.0303 -0.64587,0.30649 -0.92225,0.86032 -0.92225,1.84807 0,0.96371 0.45873,1.62351 1.22926,1.76807 0.81698,0.15326 1.09193,-0.0158 1.09193,-0.67146 0,-0.56889 -0.002,-0.57052 -0.5803,-0.57052 -0.56648,0 -0.5803,-0.0121 -0.5803,-0.50776 v -0.50776 h 1.23313 1.23313 v 1.44564 c 0,1.32611 -0.0255,1.45929 -0.3087,1.61084 -0.43144,0.2309 -1.68356,0.37571 -2.37517,0.27469 z m -46.061,-2.37261 v -2.39482 l -0.83418,-0.0435 -0.83418,-0.0435 v -0.50777 -0.50776 l 2.28492,-0.0399 2.28492,-0.0399 v 0.58398 0.58398 h -0.79431 -0.79432 l -0.0399,2.35745 -0.0398,2.35746 -0.61657,0.0446 -0.61656,0.0446 z m 3.917,-0.59587 v -2.97402 h 1.66835 1.66835 v 0.58029 0.5803 h -1.01552 -1.01552 v 0.65284 0.65283 h 0.94299 0.94297 v 0.50776 0.50776 h -0.94297 -0.94299 v 0.64647 0.64648 l 1.05179,0.0426 1.05179,0.0426 0.045,0.54403 0.045,0.54402 h -1.74965 -1.74964 z m 5.68394,2.73004 c -1.59461,-0.7858 -1.92909,-3.3997 -0.62513,-4.88532 0.43601,-0.49676 1.33465,-0.84927 2.18308,-0.85638 1.28122,-0.0107 1.46255,0.092 1.46255,0.82835 v 0.62609 l -0.59057,-0.20347 c -1.18757,-0.40915 -2.28241,0.24866 -2.41815,1.45287 -0.1547,1.37253 0.39934,2.12124 1.56972,2.12124 0.3821,0 0.8622,-0.0637 1.06687,-0.14148 0.36043,-0.13704 0.37213,-0.12351 0.37213,0.43012 0,0.41664 -0.0761,0.61231 -0.28061,0.72177 -0.44271,0.23693 -2.19014,0.17711 -2.73989,-0.0938 z m 4.32617,-2.7217 v -2.98236 h 0.65283 0.65283 v 1.16059 1.16059 h 1.16059 1.16059 v -1.16059 -1.16059 h 0.65284 0.65283 v 2.97402 2.97401 h -0.64696 -0.64697 l -0.0421,-1.19686 -0.0421,-1.19686 -1.11836,-0.0423 -1.11836,-0.0423 -0.0422,1.20286 -0.0422,1.20286 -0.61656,0.0446 -0.61656,0.0446 z m 6.38325,-0.008 v -2.97402 h 0.63035 c 0.75356,0 0.72148,-0.0337 2.13583,2.24512 l 1.07828,1.73736 0.0404,-1.99124 0.0404,-1.99124 h 0.5762 0.5762 v 2.97402 2.97401 h -0.64091 -0.6409 l -1.18322,-1.88401 c -0.65078,-1.03621 -1.24369,-1.92139 -1.3176,-1.96706 -0.0799,-0.0494 -0.13437,0.71406 -0.13437,1.88401 v 1.96706 h -0.58029 -0.5803 z m 13.05666,0 v -2.97402 h 0.65284 0.65283 v 2.39372 2.39372 h 1.01552 1.01552 v 0.5803 0.58029 h -1.66836 -1.66835 z m 5.3938,2.73004 c -1.42003,-0.69977 -1.89774,-2.89931 -0.97256,-4.47801 0.98865,-1.68701 3.7218,-1.68691 4.66814,1.4e-4 0.91015,1.62256 0.34212,3.7637 -1.20957,4.55934 -0.46982,0.2409 -1.92883,0.19307 -2.48601,-0.0815 z m 2.39912,-1.4821 c 0.23753,-0.35349 0.33107,-0.70234 0.33069,-1.23313 -0.001,-1.73076 -1.41015,-2.53483 -2.39361,-1.36605 -0.30302,0.36012 -0.36226,0.58108 -0.36226,1.35124 0,0.78263 0.0572,0.98874 0.38162,1.37425 0.33989,0.40393 0.45437,0.44878 1.04697,0.41008 0.57257,-0.0374 0.71155,-0.11219 0.99659,-0.53639 z m 10.00283,1.62936 c -0.0532,-0.0532 -0.0967,-0.57763 -0.0967,-1.16541 0,-0.86336 -0.0725,-1.21174 -0.37723,-1.81314 -0.20748,-0.40944 -0.59546,-1.22331 -0.86219,-1.8086 l -0.48496,-1.06417 h 0.71568 0.71567 l 0.44175,0.97427 c 0.24297,0.53585 0.48077,1.12972 0.52846,1.31971 0.0714,0.28454 0.18092,0.11917 0.62116,-0.938 l 0.53446,-1.28344 0.67942,-0.0442 c 0.37368,-0.0243 0.67941,-0.0114 0.67941,0.0288 0,0.0402 -0.42434,0.93336 -0.94298,1.98486 -0.88368,1.7916 -0.94298,1.97452 -0.94298,2.90892 v 0.9971 h -0.55612 c -0.30586,0 -0.59964,-0.0435 -0.65283,-0.0967 z m 7.61827,-0.14726 c -1.42415,-0.70179 -1.86351,-2.92276 -0.8838,-4.46759 0.52799,-0.83256 1.35677,-1.26502 2.44175,-1.27411 1.28121,-0.0107 1.46254,0.092 1.46254,0.82835 v 0.6261 l -0.59057,-0.20347 c -0.7345,-0.25306 -1.52232,-0.0756 -2.0211,0.45537 -0.25841,0.27507 -0.35935,0.57686 -0.40527,1.21174 -0.0568,0.78577 -0.0282,0.88292 0.40487,1.37622 0.42962,0.48932 0.5279,0.53077 1.25843,0.53077 0.43584,0 0.91869,-0.0676 1.07303,-0.15018 0.25775,-0.13794 0.28061,-0.098 0.28061,0.49084 0,0.54213 -0.0504,0.65452 -0.32641,0.7285 -0.65185,0.17468 -2.20896,0.0865 -2.69408,-0.15254 z m 4.32616,-2.73004 v -2.97402 h 0.65283 0.65284 v 2.39372 2.39372 h 1.01551 1.01552 v 0.5803 0.58029 h -1.66835 -1.66835 z m 5.18183,2.71627 c -0.78334,-0.48536 -0.97469,-1.18423 -0.97469,-3.55998 v -2.13031 h 0.65284 0.65283 v 2.07129 c 0,2.43088 0.10516,2.71615 1.00126,2.71615 0.97416,0 1.09447,-0.28182 1.15218,-2.69884 l 0.0499,-2.0886 h 0.56669 0.56669 v 2.19045 c 0,2.46105 -0.14533,3.0047 -0.93137,3.48402 -0.59478,0.3627 -2.16185,0.37176 -2.73631,0.0158 z m 5.18309,0.0719 c -0.0392,-0.1022 -0.0535,-1.42419 -0.0317,-2.93775 l 0.0396,-2.75194 1.01551,-0.0455 c 2.14791,-0.0962 2.97402,0.29384 2.97402,1.40421 0,0.46286 -0.0864,0.64672 -0.44635,0.94958 -0.2455,0.20657 -0.38297,0.37558 -0.30549,0.37558 0.0775,0 0.34361,0.1894 0.59142,0.42089 0.87845,0.82059 0.41909,2.2742 -0.82815,2.62061 -0.79207,0.21999 -2.92041,0.19475 -3.00884,-0.0357 z m 2.69174,-1.11986 c 0.15958,-0.15958 0.29015,-0.38341 0.29015,-0.4974 0,-0.4561 -0.79339,-0.89925 -1.403,-0.78364 -0.19189,0.0364 -0.27807,0.20482 -0.31129,0.6084 -0.0252,0.30694 -0.011,0.64914 0.0317,0.76043 0.11985,0.31234 1.051,0.25363 1.39242,-0.0878 z m -0.19517,-2.48488 c 0.2953,-0.24508 0.23667,-0.8194 -0.10215,-1.00074 -0.16353,-0.0875 -0.47363,-0.13878 -0.6891,-0.11391 -0.32715,0.0378 -0.39945,0.12528 -0.43827,0.53052 -0.073,0.76206 0.0518,0.9426 0.57892,0.83719 0.25049,-0.0501 0.54326,-0.16398 0.6506,-0.25306 z m -74.05303,-4.40224 c -2.01471,-0.45434 -3.13442,-1.73164 -3.50151,-3.9943 -0.0841,-0.51816 -0.15334,-2.68843 -0.15394,-4.82283 l -10e-4,-3.88074 h 1.4429 1.4429 l 0.0441,4.38849 c 0.049,4.86948 0.08,5.03935 1.03041,5.63576 0.37528,0.23551 0.6557,0.28192 1.46069,0.24176 0.90551,-0.0452 1.03352,-0.0914 1.40552,-0.50775 0.2251,-0.25193 0.47822,-0.70635 0.56249,-1.00981 0.0909,-0.3272 0.15355,-2.22187 0.15403,-4.65536 l 8.2e-4,-4.10359 1.41447,0.0415 1.41448,0.0415 -0.008,4.27969 c -0.007,3.58684 -0.0477,4.40632 -0.25219,5.06196 -0.70227,2.25151 -1.97965,3.20754 -4.55847,3.41172 -0.60816,0.0481 -1.333,-8.3e-4 -1.89739,-0.12804 z m 51.50128,0.001 c -1.48744,-0.33734 -2.48441,-1.13136 -3.103,-2.47132 -0.32484,-0.70365 -0.33618,-0.86759 -0.37902,-5.47654 l -0.0442,-4.75116 h 1.37586 1.37585 l 0.046,4.31595 c 0.0416,3.90885 0.0722,4.36888 0.3245,4.87711 0.42827,0.8628 0.97344,1.13256 2.16845,1.07294 0.90551,-0.0452 1.03352,-0.0914 1.40552,-0.50775 0.2251,-0.25192 0.47822,-0.70634 0.56249,-1.00981 0.0908,-0.32713 0.15355,-2.2203 0.15403,-4.6501 l 8.2e-4,-4.09834 h 1.45074 1.45074 l -0.001,3.80819 c -4.2e-4,2.09451 -0.0676,4.23254 -0.14888,4.75118 -0.20643,1.31729 -0.92872,2.71298 -1.70612,3.29671 -1.15506,0.8673 -3.24816,1.22499 -4.93269,0.84295 z m -42.97161,-0.18411 c 0,-0.0882 1.83668,-5.23041 3.97782,-11.13678 l 0.47332,-1.30567 1.67011,-0.0407 1.6701,-0.0407 0.73589,2.07172 c 0.40475,1.13945 1.16846,3.31211 1.69714,4.82814 0.52868,1.51602 1.18637,3.37016 1.46154,4.12032 0.27516,0.75016 0.50029,1.41931 0.50029,1.48701 0,0.0677 -0.68299,0.12309 -1.51776,0.12309 h -1.51778 l -0.41186,-1.34194 -0.41186,-1.34193 h -2.24124 -2.24125 l -0.42589,1.34193 -0.42589,1.34194 h -1.49634 c -0.82299,0 -1.49634,-0.0479 -1.49634,-0.10646 z m 7.54959,-4.93487 c 0.003,-0.0598 -0.33957,-1.2363 -0.76164,-2.61435 -0.7238,-2.36325 -0.77382,-2.47448 -0.88076,-1.9585 -0.0624,0.30088 -0.4051,1.44064 -0.76164,2.5328 -0.35654,1.09217 -0.64826,2.02246 -0.64826,2.06731 0,0.12442 3.04573,0.0972 3.0523,-0.0273 z m 6.66766,-1.26939 v -6.31073 h 1.504 1.504 l 0.41052,0.61657 c 0.59013,0.88634 3.461,5.33346 4.36917,6.76808 l 0.77168,1.219 v -4.30182 -4.30183 h 1.30566 1.30567 v 6.31073 6.31071 l -1.41447,-0.003 -1.41447,-0.003 -0.57396,-0.9037 c -0.31568,-0.49704 -1.58871,-2.46544 -2.82895,-4.37422 l -2.25498,-3.47053 -0.0384,4.37724 -0.0384,4.37723 h -1.30354 -1.30354 z m 16.82859,1.16059 v -5.15013 h -1.74089 -1.74089 v -1.16059 -1.1606 h 4.93252 4.93252 v 1.1606 1.16059 h -1.74089 -1.74089 v 5.15013 5.15012 h -1.45074 -1.45074 z m 21.7611,-1.16458 v -6.3147 l 2.06145,0.0403 2.06144,0.0403 0.35069,1.01552 c 1.44503,4.18459 2.48998,7.38359 2.48998,7.62281 0,0.15605 0.0653,0.28372 0.14507,0.28372 0.0798,0 0.14507,-0.0945 0.14507,-0.21004 0,-0.17507 1.35259,-4.25313 2.61286,-7.87784 l 0.31526,-0.90671 h 2.01772 2.01772 v 6.31072 6.31072 h -1.37628 -1.37627 l -0.0382,-4.89625 c -0.0376,-4.82247 -0.0418,-4.88313 -0.27526,-4.0258 -0.13039,0.47874 -0.85398,2.66574 -1.60798,4.85998 l -1.37091,3.98953 -1.16856,0.0419 -1.16854,0.0419 -0.16914,-0.4771 c -1.40616,-3.96633 -2.71905,-7.76481 -2.92273,-8.45617 l -0.25646,-0.87044 -0.0103,4.89624 -0.0103,4.89625 h -1.23313 -1.23313 z"
           id="path371" /><path
           style="fill:#b10101;stroke-width:0.145074"
           d="m 164.75492,215.34062 c -3.188,-0.59091 -6.09276,-2.58672 -9.98809,-6.86262 l -1.71886,-1.8868 -0.96501,-0.10049 c -6.63217,-0.69061 -11.35385,-4.9566 -12.96036,-11.70955 -0.43743,-1.83874 -0.47106,-6.20829 -0.0623,-8.09585 0.90861,-4.19587 2.60229,-7.07978 5.54031,-9.43372 1.68272,-1.3482 3.7971,-2.29875 6.32933,-2.84543 1.79535,-0.3876 5.53225,-0.35877 7.32163,0.0565 2.8061,0.65121 5.0033,1.88708 7.01111,3.94358 2.00263,2.05121 3.28847,4.52692 3.93187,7.57034 0.45544,2.15434 0.45661,6.07628 0.002,8.22391 -1.08469,5.1293 -3.77488,8.72239 -8.03435,10.73087 -0.61931,0.29202 -1.10413,0.59851 -1.07739,0.68107 0.0267,0.0826 0.59471,0.62182 1.26217,1.19833 2.24717,1.94095 4.1491,2.65119 7.0996,2.65119 1.0317,0 2.01179,-0.0846 2.52267,-0.21761 0.4595,-0.11969 0.86492,-0.21762 0.90092,-0.21762 0.036,0 0.0655,1.3318 0.0655,2.95955 v 2.95955 l -0.6891,0.15775 c -2.00581,0.45915 -4.75274,0.55946 -6.49206,0.23707 z m -8.90621,-15.02136 c 3.22948,-0.61246 5.5529,-3.48001 6.09322,-7.52022 0.23137,-1.73005 0.0851,-4.85184 -0.29659,-6.33134 -0.92447,-3.58313 -3.09195,-5.74551 -6.19956,-6.18499 -4.09643,-0.57931 -7.53927,1.84332 -8.78112,6.17902 -0.29615,1.03391 -0.33414,1.47999 -0.33414,3.92296 0,2.44658 0.0375,2.88613 0.33413,3.91046 0.91536,3.1616 2.94144,5.32332 5.59183,5.96621 0.9327,0.22624 2.56579,0.25256 3.59223,0.0579 z"
           id="path369" /></g></g></g></svg>
